<svg width="20" height="20" viewBox="0 0 20 20" fill="none" xmlns="http://www.w3.org/2000/svg">
    <path
        d="M18.3334 8.75033V10.0003C18.3334 13.9287 18.3334 15.8929 17.113 17.1133C15.8926 18.3337 13.9285 18.3337 10.0001 18.3337C6.07171 18.3337 4.10752 18.3337 2.88714 17.1133C1.66675 15.8929 1.66675 13.9287 1.66675 10.0003C1.66675 6.07195 1.66675 4.10777 2.88714 2.88738C4.10752 1.66699 6.07171 1.66699 10.0001 1.66699H11.2501"
        stroke="#1A1A1A" stroke-linecap="round" />
    <path
        d="M13.8768 2.87954L14.4175 2.33886C15.3133 1.44304 16.7657 1.44304 17.6615 2.33886C18.5574 3.23469 18.5574 4.68711 17.6615 5.58294L17.1209 6.12362M13.8768 2.87954C13.8768 2.87954 13.9444 4.02849 14.9581 5.04226C15.9719 6.05604 17.1209 6.12362 17.1209 6.12362M13.8768 2.87954L8.90606 7.85027C8.56938 8.18694 8.40105 8.35528 8.25627 8.5409C8.08549 8.75985 7.93908 8.99676 7.81961 9.24742C7.71834 9.45992 7.64306 9.68577 7.49249 10.1375L7.01043 11.5837M17.1209 6.12362L12.1501 11.0943C11.8135 11.431 11.6451 11.5994 11.4595 11.7441C11.2406 11.9149 11.0037 12.0613 10.753 12.1808C10.5405 12.2821 10.3146 12.3573 9.86294 12.5079L8.41675 12.99M8.41675 12.99L7.48099 13.3019C7.2587 13.376 7.01363 13.3181 6.84795 13.1525C6.68227 12.9868 6.62441 12.7417 6.69851 12.5194L7.01043 11.5837M8.41675 12.99L7.01043 11.5837"
        stroke="#1A1A1A" />
</svg>