<svg width="18" height="18" viewBox="0 0 18 18" fill="none" xmlns="http://www.w3.org/2000/svg">
    <g clip-path="url(#clip0_583_1117)">
    <path d="M16.6502 3.59961H1.3501" stroke="#1A1A1A" stroke-linecap="round"/>
    <path d="M15.1501 5.84961L14.7361 12.0588C14.5769 14.4482 14.4972 15.6429 13.7187 16.3713C12.9402 17.0996 11.7428 17.0996 9.34811 17.0996H8.65208C6.25736 17.0996 5.06 17.0996 4.28149 16.3713C3.50299 15.6429 3.42334 14.4482 3.26404 12.0588L2.8501 5.84961" stroke="#1A1A1A" stroke-linecap="round"/>
    <path d="M6.75 8.09961L7.2 12.5996" stroke="#1A1A1A" stroke-linecap="round"/>
    <path d="M11.25 8.09961L10.8 12.5996" stroke="#1A1A1A" stroke-linecap="round"/>
    <path d="M4.05005 3.60039C4.10034 3.60039 4.12549 3.60039 4.14828 3.59981C4.88938 3.58103 5.54317 3.10981 5.79534 2.41268C5.8031 2.39123 5.81105 2.36738 5.82696 2.31967L5.91433 2.05753C5.98893 1.83376 6.02622 1.72187 6.07569 1.62687C6.27306 1.24786 6.63822 0.984664 7.0602 0.91728C7.16596 0.900391 7.2839 0.900391 7.51978 0.900391H10.4803C10.7162 0.900391 10.8341 0.900391 10.9399 0.91728C11.3619 0.984664 11.727 1.24786 11.9244 1.62687C11.9739 1.72187 12.0112 1.83376 12.0858 2.05753L12.1731 2.31967C12.189 2.36731 12.197 2.39125 12.2048 2.41268C12.4569 3.10981 13.1107 3.58103 13.8518 3.59981C13.8746 3.60039 13.8998 3.60039 13.95 3.60039" stroke="#1A1A1A"/>
    </g>
    <defs>
    <clipPath id="clip0_583_1117">
    <rect width="18" height="18" fill="white"/>
    </clipPath>
    </defs>
    </svg>
    