<svg width="24" height="24" viewBox="0 0 24 24" fill="none" xmlns="http://www.w3.org/2000/svg">
    <path d="M22.2002 4.7998H1.80005" stroke="#1A1A1A" stroke-width="1.5" stroke-linecap="round" />
    <path
        d="M20.2 7.7998L19.6481 16.0787C19.4357 19.2646 19.3295 20.8576 18.2915 21.8287C17.2535 22.7998 15.657 22.7998 12.4641 22.7998H11.536C8.34307 22.7998 6.74659 22.7998 5.70858 21.8287C4.67057 20.8576 4.56437 19.2646 4.35198 16.0787L3.80005 7.7998"
        stroke="#1A1A1A" stroke-width="1.5" stroke-linecap="round" />
    <path d="M9 10.7998L9.6 16.7998" stroke="#1A1A1A" stroke-width="1.5" stroke-linecap="round" />
    <path d="M14.9999 10.7998L14.3999 16.7998" stroke="#1A1A1A" stroke-width="1.5"
        stroke-linecap="round" />
    <path
        d="M5.3999 4.8002C5.46696 4.8002 5.50049 4.8002 5.53088 4.79942C6.51901 4.77438 7.39073 4.14609 7.72696 3.21658C7.7373 3.18799 7.74791 3.15618 7.76911 3.09257L7.88562 2.74305C7.98507 2.44469 8.0348 2.2955 8.10076 2.16884C8.36392 1.66348 8.85079 1.31256 9.41343 1.22271C9.55446 1.2002 9.71171 1.2002 10.0262 1.2002H13.9736C14.2881 1.2002 14.4453 1.2002 14.5864 1.22271C15.149 1.31256 15.6359 1.66348 15.899 2.16884C15.965 2.2955 16.0147 2.44469 16.1142 2.74305L16.2307 3.09257C16.2519 3.15609 16.2625 3.18801 16.2728 3.21658C16.6091 4.14609 17.4808 4.77438 18.4689 4.79942C18.4993 4.8002 18.5328 4.8002 18.5999 4.8002"
        stroke="#1A1A1A" stroke-width="1.5" />
</svg>
    