<svg width="63" height="90" viewBox="0 0 63 90" fill="none" xmlns="http://www.w3.org/2000/svg">
<path d="M30 59.6457V36.5062C30.591 35.6174 31.5 33.6562 31.5 29.9999C31.5 25.4786 24.0938 12.7687 22.5 10.0863V1.5C22.5 1.10217 22.342 0.720643 22.0607 0.439339C21.7794 0.158035 21.3979 0 21 0H12.0001C11.6022 0 11.2207 0.158035 10.9394 0.439339C10.6581 0.720643 10.5001 1.10217 10.5001 1.5V10.0863C8.90632 12.7687 1.50009 25.4786 1.50009 29.9999C1.50009 33.6562 2.40908 35.618 3.00008 36.5062V59.6457L0.791901 64.0622C0.27244 65.104 0.00141732 66.2521 9.05745e-05 67.4162V82.3873C-0.0085131 84.1335 0.596078 85.8273 1.70844 87.1734C2.8208 88.5195 4.37035 89.4324 6.08689 89.753C7.04861 89.9223 8.02358 90.0049 9.00007 89.9998C12.9503 89.9998 15.2414 88.8165 16.5 87.7592C17.7587 88.8165 20.0498 89.9998 24 89.9998C24.9765 90.0046 25.9514 89.9218 26.913 89.7523C28.6295 89.4317 30.179 88.5189 31.2913 87.173C32.4037 85.8271 33.0084 84.1334 33 82.3873V67.4162C32.9987 66.2521 32.7277 65.104 32.2082 64.0622L30 59.6457ZM20.1473 12C21.1598 13.7132 22.3077 15.7475 23.4225 17.835H9.57794C10.6926 15.7475 11.8411 13.7132 12.853 12H20.1473ZM19.5 2.99999V8.99998H13.5001V2.99999H19.5ZM8.02151 20.8349H24.979C26.9449 24.7499 28.5 28.4015 28.5 29.9999C28.5 32.4496 28.0153 33.8416 27.6904 34.4999H5.3097C4.98477 33.8416 4.50008 32.4496 4.50008 29.9999C4.50008 28.4022 6.05633 24.7499 8.02151 20.8349ZM27 58.4999H6.00008V37.4999H27V58.4999ZM30 82.3873C30.0084 83.4311 29.6501 84.4448 28.9876 85.2515C28.3251 86.0582 27.4004 86.6068 26.3749 86.8016C25.5908 86.9385 24.796 87.0049 24 86.9998C19.3225 86.9998 17.9744 85.0389 17.8343 84.8122C17.7238 84.5496 17.5383 84.3254 17.3009 84.1678C17.0636 84.0101 16.785 83.926 16.5 83.926C16.2151 83.926 15.9365 84.0101 15.6992 84.1678C15.4618 84.3254 15.2763 84.5496 15.1658 84.8122C15.0257 85.0389 13.6776 86.9998 9.00007 86.9998C8.20403 87.0046 7.40916 86.938 6.62501 86.8008C5.59963 86.6061 4.67513 86.0576 4.01269 85.251C3.35025 84.4445 2.99189 83.431 3.00008 82.3873V67.4162C3.00091 66.7177 3.16347 66.0289 3.47502 65.4038L5.42708 61.4998H27.573L29.5251 65.4038C29.8366 66.0289 29.9992 66.7177 30 67.4162V82.3873Z" fill="black"/>
<path d="M12 69C12.8284 69 13.5 68.3284 13.5 67.5C13.5 66.6716 12.8284 66 12 66C11.1716 66 10.5 66.6716 10.5 67.5C10.5 68.3284 11.1716 69 12 69Z" fill="black"/>
<path d="M7.5 73.499C8.32842 73.499 8.99999 72.8274 8.99999 71.999C8.99999 71.1706 8.32842 70.499 7.5 70.499C6.67157 70.499 6 71.1706 6 71.999C6 72.8274 6.67157 73.499 7.5 73.499Z" fill="black"/>
<path d="M12 78C12.8284 78 13.5 77.3284 13.5 76.5C13.5 75.6716 12.8284 75 12 75C11.1716 75 10.5 75.6716 10.5 76.5C10.5 77.3284 11.1716 78 12 78Z" fill="black"/>
<path d="M13.5 27C14.3284 27 15 26.3284 15 25.5C15 24.6716 14.3284 24 13.5 24C12.6716 24 12 24.6716 12 25.5C12 26.3284 12.6716 27 13.5 27Z" fill="black"/>
<path d="M9 31.5C9.82842 31.5 10.5 30.8284 10.5 30C10.5 29.1716 9.82842 28.5 9 28.5C8.17157 28.5 7.5 29.1716 7.5 30C7.5 30.8284 8.17157 31.5 9 31.5Z" fill="black"/>
<path d="M61.4551 49.1353C61.374 48.8107 61.1867 48.5226 60.9231 48.3167C60.6594 48.1109 60.3345 47.999 59.9999 47.999H39C38.6655 47.999 38.3405 48.1109 38.0769 48.3167C37.8132 48.5226 37.6259 48.8107 37.5448 49.1353L36.0448 55.1353C36.015 55.2542 36 55.3764 36 55.499V82.4989C36 82.6216 36.015 82.7437 36.0448 82.8627L37.5448 88.8627C37.6259 89.1872 37.8132 89.4753 38.0769 89.6812C38.3405 89.8871 38.6655 89.9989 39 89.9989H59.9999C60.3345 89.9989 60.6594 89.8871 60.9231 89.6812C61.1867 89.4753 61.374 89.1872 61.4551 88.8627L62.9551 82.8627C62.9849 82.7437 63 82.6216 62.9999 82.4989V55.499C63 55.3764 62.9849 55.2542 62.9551 55.1353L61.4551 49.1353ZM39 80.9989V56.999H59.9999V80.9989H39ZM58.8288 50.999L59.5788 53.999H39.4211L40.1711 50.999H58.8288ZM40.1711 86.9989L39.4211 83.9989H59.5788L58.8288 86.9989H40.1711Z" fill="black"/>
<path d="M47.9995 63C48.8279 63 49.4995 62.3284 49.4995 61.5C49.4995 60.6716 48.8279 60 47.9995 60C47.1711 60 46.4995 60.6716 46.4995 61.5C46.4995 62.3284 47.1711 63 47.9995 63Z" fill="black"/>
<path d="M43.5 67.499C44.3284 67.499 45 66.8274 45 65.999C45 65.1706 44.3284 64.499 43.5 64.499C42.6716 64.499 42 65.1706 42 65.999C42 66.8274 42.6716 67.499 43.5 67.499Z" fill="black"/>
<path d="M47.9995 72C48.8279 72 49.4995 71.3284 49.4995 70.5C49.4995 69.6716 48.8279 69 47.9995 69C47.1711 69 46.4995 69.6716 46.4995 70.5C46.4995 71.3284 47.1711 72 47.9995 72Z" fill="black"/>
</svg>
