<svg width="26" height="26" viewBox="0 0 26 26" fill="none" xmlns="http://www.w3.org/2000/svg">
<path d="M4.33325 10.8337C4.33325 6.74815 4.33325 4.7054 5.60246 3.4362C6.87166 2.16699 8.91441 2.16699 12.9999 2.16699C17.0854 2.16699 19.1282 2.16699 20.3974 3.4362C21.6666 4.7054 21.6666 6.74815 21.6666 10.8337V14.0837C21.6666 18.1692 21.6666 20.2119 20.3974 21.4811C19.1282 22.7503 17.0854 22.7503 12.9999 22.7503C8.91441 22.7503 6.87166 22.7503 5.60246 21.4811C4.33325 20.2119 4.33325 18.1692 4.33325 14.0837V10.8337Z" stroke="#EEF0EB" stroke-width="1.5"/>
<path d="M18.4166 22.75V23.8333H17.3333V22.75M8.66659 22.75V23.8333H7.58325V22.75" stroke="#EEF0EB" stroke-width="1.5" stroke-linejoin="round"/>
<path d="M21.6666 12.458H4.33325" stroke="#EEF0EB" stroke-width="1.5"/>
<path d="M18.4167 7.58333L18.4167 9.75" stroke="#EEF0EB" stroke-width="1.5" stroke-linecap="round"/>
<path d="M18.4167 15.1663L18.4167 17.333" stroke="#EEF0EB" stroke-width="1.5" stroke-linecap="round"/>
</svg>
