<svg width="508" height="1084" viewBox="0 0 508 1084" fill="none" xmlns="http://www.w3.org/2000/svg">
<path d="M221.979 985.269L122.771 987.749V1069.6L221.979 1062.78V985.269Z" fill="#2C2C2C"/>
<path d="M132.071 288.326L122.771 293.907V987.749L132.071 987.129V288.326Z" fill="#7D7D7D"/>
<path d="M132.072 313.129L146.954 314.989L144.473 987.129H132.072V313.129Z" fill="#595959"/>
<path d="M122.771 1069.6V40.3037L18.6017 153.774L0 1036.11L122.771 1069.6Z" fill="#AEAEAE"/>
<path d="M132.072 313.128V288.326L169.896 285.226L221.98 293.286V323.669L132.072 313.128Z" fill="#4B4B4B"/>
<path d="M18.6016 140.753L122.771 24.8027V40.3041L18.6016 153.774V140.753Z" fill="#BABABA"/>
<path d="M132.071 280.885L122.771 285.226V24.8022L138.272 9.30078L132.071 280.885Z" fill="#E1E1E1"/>
<path d="M132.072 280.885L169.896 277.165V0L138.273 9.30083L132.072 280.885Z" fill="#D9D9D9"/>
<path d="M484.884 81.2273L491.704 323.669L169.896 277.165V0L461.322 57.6652L484.884 81.2273Z" fill="#F0F0F0"/>
<path d="M184.776 228.801L174.855 234.381V215.159L184.156 208.339L184.776 228.801Z" fill="#BFBFBF"/>
<path d="M174.855 234.381L191.597 239.342L202.138 232.521L184.776 228.801L174.855 234.381Z" fill="#BFBFBF"/>
<path d="M331.111 243.061L235.002 237.481L234.382 212.059L330.49 233.14L331.111 243.061Z" fill="#D9D9D9"/>
<path d="M202.139 232.521L191.598 239.341L228.181 243.061L235.002 237.481L202.139 232.521Z" fill="#B0B0B0"/>
<path d="M322.429 251.123L309.408 250.503L311.888 241.822L331.11 243.062L322.429 251.123Z" fill="#B0B0B0"/>
<path d="M122.771 293.907L132.071 288.326V280.886L122.771 285.226V293.907Z" fill="#7D7D7D"/>
<path d="M169.896 285.226L132.072 288.326V280.885L169.896 277.165V285.226Z" fill="#404040"/>
<path d="M264.763 269.725L222.6 273.445V263.524L264.763 260.424V269.725Z" fill="#595959"/>
<path d="M264.764 260.424V269.725L270.964 270.345V261.044L264.764 260.424Z" fill="#7D7D7D"/>
<path d="M169.896 285.226L221.98 293.286V285.846L169.896 277.165V285.226Z" fill="#595959"/>
<path d="M501.625 1046.03L264.764 1083.24V1044.17H270.964L507.826 1025.57L501.625 1046.03Z" fill="#D9D9D9"/>
<path d="M221.979 1077.04C221.979 1064.64 221.979 1045.41 221.979 1043.55H264.766V1083.24L221.979 1077.04Z" fill="#CBCBCB"/>
<path d="M491.704 323.669L491.084 338.55L221.979 293.286V285.846L491.704 323.669Z" fill="#2C2C2C"/>
<path d="M264.764 269.917L270.964 270.344L271.584 1044.17H264.764V269.917Z" fill="#FDFDFD"/>
<path d="M341.03 295.147L279.645 273.445V262.904L342.27 286.466L341.03 295.147Z" fill="#595959"/>
<path d="M494.804 342.891V350.332L341.03 295.147L342.27 286.466L494.804 342.891Z" fill="#2C2C2C"/>
<path d="M507.826 1025.57L270.965 1044.17V270.345L494.805 350.332L507.826 1025.57Z" fill="#F0F0F0"/>
<path d="M316.228 342.891L284.605 341.651L303.827 336.69V314.368L316.228 314.988V342.891Z" fill="#BFBFBF"/>
<path d="M303.827 336.69L284.605 341.651V319.329L303.827 314.368V336.69Z" fill="#B9B9B9"/>
<path d="M342.891 350.332L316.228 352.812L284.605 341.651L316.228 342.891L342.891 350.332Z" fill="#B0B0B0"/>
<path d="M316.228 342.891L396.835 365.213H407.376V352.192L316.228 314.988V342.891Z" fill="#D9D9D9"/>
<path d="M390.015 368.313L382.574 367.693L396.215 365.213H407.376L390.015 368.313Z" fill="#B0B0B0"/>
<path d="M382.574 367.693V362.732L396.215 365.213L382.574 367.693Z" fill="#B9B9B9"/>
<path d="M270.965 261.043V270.344L279.646 273.444V262.903L270.965 261.043Z" fill="#404040"/>
<path d="M222.6 273.444L264.763 269.724V1043.55H221.979L222.6 273.444Z" fill="#D9D9D9"/>
<path d="M235.002 237.481L202.139 232.521L203.379 207.719L234.382 212.059L235.002 237.481Z" fill="#D9D9D9"/>
<path d="M202.139 232.521L184.777 228.801L184.157 208.339L203.379 207.719L202.139 232.521Z" fill="#B9B9B9"/>
<path d="M221.98 323.669L146.953 314.988L144.473 930.704L221.98 929.463V323.669Z" fill="#BFDFAC"/>
<path d="M221.98 985.269L144.473 987.129V930.704L221.98 929.464V985.269Z" fill="#404040"/>
</svg>
